<mxfile host="app.diagrams.net" modified="2024-03-24T22:10:38.669Z" agent="Mozilla/5.0 (Windows NT 10.0; Win64; x64) AppleWebKit/537.36 (KHTML, like Gecko) Chrome/122.0.0.0 Safari/537.36 OPR/108.0.0.0" version="24.0.7" etag="gR73Ob8xzsiSt6wBhey2" type="github">
  <diagram name="PÃ¡gina-1" id="mqq1f3xMc5Hays8iA_7L">
    <mxGraphModel>
      <root>
        <mxCell id="0" />
        <mxCell id="1" parent="0" />
      </root>
    </mxGraphModel>
  </diagram>
</mxfile>
